<?xml version="1.0" encoding="UTF-8" standalone="no"?>
<svg xmlns="http://www.w3.org/2000/svg" height="179.1mm" width="203.55mm" version="1.1" viewBox="0 0 721.25001 634.60383">
<path d="m401.09 191.34c-0.57375-0.27875-1.0888-0.675-1.545-1.1888-0.91125-1.0288-1.3275-2.23-1.2475-3.6025 0.04-0.68625 0.2-1.315 0.4775-1.8888l34.59-71.276c0.27875-0.57375 0.675-1.0888 1.1888-1.545 1.0288-0.91125 2.2288-1.3275 3.6012-1.2475 0.68625 0.04 1.3162 0.2 1.89 0.4775l141.55 68.688c4.4912 2.18 9.4462 3.5212 14.461 3.9 5.015 0.38 10.09-0.2025 14.882-1.6938 4.7925-1.4912 9.3012-3.8912 13.216-7.05 3.9138-3.1575 7.2325-7.0738 9.695-11.418l1.3688-2.4162c2.565-4.525 4.2525-9.6125 4.8988-14.816 0.645-5.2025 0.24875-10.52-1.145-15.562-1.395-5.0412-3.7862-9.8075-7.0138-13.94-3.2262-4.1312-7.2888-7.63-11.814-10.195l-177.77-100.75c-4.63-2.6212-9.85-4.3262-15.18-4.9388-5.33-0.6112-10.78-0.12995-15.91 1.3926-5.13 1.5212-9.95 4.0837-14.09 7.5024-4.14 3.4188-7.59 7.6948-10.04 12.419l-150.61 290.22h414.05l-249.5-121.08zm-165.16 35.85c0-11.155-2.2188-22.31-6.4875-32.616-4.2688-10.305-10.588-19.762-18.475-27.65-7.8888-7.8875-17.345-14.206-27.651-18.475-10.306-4.27-21.461-6.4888-32.616-6.4888s-22.31 2.2188-32.615 6.4888c-10.306 4.2688-19.764 10.588-27.651 18.475-7.8875 7.8875-14.206 17.345-18.475 27.65-4.285 10.31-6.505 21.46-6.505 32.62 0 11.155 2.22 22.31 6.4888 32.616s10.588 19.762 18.475 27.651c7.8875 7.8875 17.345 14.206 27.651 18.475 10.305 4.2688 21.46 6.4875 32.615 6.4875s22.31-2.2188 32.616-6.4875c10.306-4.2688 19.762-10.588 27.651-18.475 7.8875-7.8888 14.206-17.345 18.475-27.651 4.2688-10.306 6.4875-21.461 6.4875-32.616zm484.68 124.65c-0.96375-0.10375-1.9325-0.13375-2.9062-0.0862-1.95 0.0925-3.8825 0.29875-5.7962 0.62125-0.95875 0.16125-1.9162 0.32875-2.8725 0.50125-25.458 4.6012-45.334 20.9-64.846 19.286-15.686-1.2975-31.138-14.171-45.461-19.286-1.31-0.40375-2.6438-0.75625-4-0.95-1.8088-0.25875-3.6562-0.23375-5.4812-0.0725-2.2825 0.20125-4.53 0.61625-6.7788 1.0225-25.458 4.6012-45.335 20.9-64.848 19.286-15.686-1.2975-31.138-14.171-45.46-19.286-1.31-0.40375-2.645-0.75625-4-0.95-1.8088-0.25875-3.6562-0.23375-5.4825-0.0725-2.2812 0.20125-4.5288 0.61625-6.7775 1.0225-25.459 4.6012-45.335 20.9-64.848 19.286-15.686-1.2975-31.138-14.171-45.461-19.286-1.31-0.40375-2.6438-0.75625-4-0.95-1.8088-0.2588-3.6562-0.2338-5.4812-0.0726-2.2825 0.20125-4.5288 0.61625-6.7775 1.0225-25.459 4.6012-45.335 20.9-64.848 19.286-15.686-1.2975-31.138-14.171-45.461-19.286-1.31-0.40375-2.6438-0.75625-4-0.95-1.8088-0.25875-3.6562-0.23375-5.4812-0.0725-2.2825 0.20125-4.53 0.61625-6.7788 1.0225-25.458 4.6012-45.334 20.9-64.846 19.286-15.69-1.3-31.14-14.17-45.464-19.29-1.31-0.40375-2.6438-0.75625-4-0.95-1.808-0.26-3.656-0.23-5.481-0.07-2.2825 0.20125-4.53 0.61625-6.7788 1.0225-25.458 4.6012-45.335 20.9-64.848 19.286-3.5942-0.3-7.178-1.2-10.738-2.48v52.341c3.56 1.2812 7.1438 2.1875 10.739 2.4838 19.512 1.615 39.39-14.685 64.848-19.286 2.2488-0.40625 4.4962-0.82125 6.7788-1.0225 1.825-0.16125 3.6725-0.18625 5.4812 0.0725 1.3562 0.19375 2.69 0.54625 4 0.95 14.324 5.115 29.774 17.99 45.461 19.286 19.512 1.615 39.389-14.685 64.846-19.286 2.2488-0.40625 4.4962-0.82125 6.7788-1.0225 1.825-0.16125 3.6725-0.18625 5.4812 0.0725 1.3562 0.19375 2.69 0.54625 4 0.95 14.324 5.115 29.775 17.99 45.461 19.286 19.512 1.615 39.389-14.685 64.848-19.286 2.2488-0.40625 4.495-0.82125 6.7775-1.0225 1.825-0.16125 3.6725-0.18625 5.4812 0.0725 1.3562 0.19375 2.69 0.54625 4 0.95 14.324 5.115 29.775 17.99 45.461 19.286 19.512 1.615 39.389-14.685 64.848-19.286 2.2488-0.40625 4.4962-0.82125 6.7775-1.0225 1.8262-0.16125 3.6738-0.18625 5.4825 0.0725 1.355 0.19375 2.69 0.54625 4 0.95 14.322 5.115 29.774 17.99 45.46 19.286 19.512 1.615 39.39-14.685 64.848-19.286 2.2488-0.40625 4.4962-0.82125 6.7788-1.0225 1.825-0.16125 3.6725-0.18625 5.4812 0.0725 1.3562 0.19375 2.69 0.54625 4 0.95 14.324 5.115 29.775 17.99 45.461 19.286 19.512 1.615 39.389-14.685 64.846-19.286 0.95625-0.1725 1.9138-0.34 2.8725-0.50125 1.9138-0.32125 3.8462-0.52875 5.7962-0.62125 0.97375-0.0462 1.9425-0.0175 2.9062 0.0863v-52.341zm0 209.36v52.341c-0.96375-0.10375-1.9325-0.1325-2.9062-0.0862-1.95 0.0925-3.8825 0.3-5.7962 0.62125-0.95875 0.16125-1.9162 0.32875-2.8725 0.50125-25.458 4.6012-45.334 20.9-64.846 19.286-15.686-1.2975-31.138-14.171-45.461-19.286-1.31-0.40375-2.6438-0.75625-4-0.95-1.8088-0.25875-3.6562-0.23375-5.4812-0.0725-2.2825 0.20125-4.53 0.61625-6.7788 1.0225-25.458 4.6012-45.335 20.9-64.848 19.286-15.686-1.2975-31.138-14.171-45.46-19.286-1.31-0.40375-2.645-0.75625-4-0.95-1.8088-0.25875-3.6562-0.23375-5.4825-0.0725-2.2812 0.20125-4.5288 0.61625-6.7775 1.0225-25.459 4.6012-45.335 20.9-64.848 19.286-15.686-1.2975-31.138-14.171-45.461-19.286-1.31-0.40375-2.6438-0.75625-4-0.95-1.8088-0.25875-3.6562-0.23375-5.4812-0.0725-2.2825 0.20125-4.5288 0.61625-6.7775 1.0225-25.459 4.6012-45.335 20.9-64.848 19.286-15.686-1.2975-31.138-14.171-45.461-19.286-1.31-0.40375-2.6438-0.75625-4-0.95-1.8088-0.25875-3.6562-0.23375-5.4812-0.0725-2.2825 0.20125-4.53 0.61625-6.7788 1.0225-25.458 4.6012-45.334 20.9-64.846 19.286-15.688-1.2976-31.138-14.171-45.461-19.286-1.31-0.40375-2.6438-0.75625-4-0.95-1.8088-0.25875-3.6562-0.23375-5.4812-0.0725-2.2825 0.20125-4.53 0.61625-6.7788 1.0225-25.458 4.6012-45.335 20.9-64.848 19.286-3.5962-0.29-7.18-1.2-10.74-2.48v-52.341c3.56 1.2812 7.1438 2.1862 10.739 2.4838 19.512 1.6138 39.39-14.685 64.848-19.286 2.2488-0.40625 4.4962-0.82125 6.7788-1.0225 1.825-0.16125 3.6725-0.18625 5.4812 0.0725 1.3562 0.19375 2.69 0.54625 4 0.95 14.324 5.115 29.774 17.989 45.461 19.286 19.512 1.6138 39.389-14.685 64.846-19.286 2.2488-0.40625 4.4962-0.82125 6.7788-1.0225 1.825-0.16125 3.6725-0.18625 5.4812 0.0725 1.3562 0.19375 2.69 0.54625 4 0.95 14.324 5.115 29.775 17.989 45.461 19.286 19.512 1.6138 39.389-14.685 64.848-19.286 2.2488-0.40625 4.495-0.82125 6.7775-1.0225 1.825-0.16125 3.6725-0.18625 5.4812 0.0725 1.3562 0.19375 2.69 0.54625 4 0.95 14.324 5.115 29.775 17.989 45.461 19.286 19.512 1.6138 39.389-14.685 64.848-19.286 2.2488-0.40625 4.4962-0.82125 6.7775-1.0225 1.8262-0.16125 3.6738-0.18625 5.4825 0.0725 1.355 0.19375 2.69 0.54625 4 0.95 14.322 5.115 29.774 17.989 45.46 19.286 19.512 1.6138 39.39-14.685 64.848-19.286 2.2488-0.40625 4.4962-0.82125 6.7788-1.0225 1.825-0.16125 3.6725-0.18625 5.4812 0.0725 1.3562 0.19375 2.69 0.54625 4 0.95 14.324 5.115 29.775 17.989 45.461 19.286 19.512 1.6138 39.389-14.685 64.846-19.286 0.95625-0.1725 1.9138-0.34 2.8725-0.50125 1.9138-0.3225 3.8462-0.52875 5.7962-0.6225 0.97375-0.0462 1.9425-0.0175 2.9062 0.0875zm0-104.69v52.341c-0.96375-0.10375-1.9325-0.1325-2.9062-0.0863-1.95 0.0925-3.8825 0.3-5.7962 0.6225-0.95875 0.16125-1.9162 0.3275-2.8725 0.50125-25.458 4.6012-45.334 20.9-64.846 19.286-15.686-1.2975-31.138-14.171-45.461-19.286-1.31-0.40375-2.6438-0.7575-4-0.95125-1.8088-0.2575-3.6562-0.2325-5.4812-0.0713-2.2825 0.20125-4.53 0.615-6.7788 1.0225-25.458 4.6012-45.335 20.9-64.848 19.286-15.686-1.2975-31.138-14.171-45.46-19.286-1.31-0.40375-2.645-0.7575-4-0.95125-1.8088-0.2575-3.6562-0.2325-5.4825-0.0713-2.2812 0.20125-4.5288 0.615-6.7775 1.0225-25.459 4.6012-45.335 20.9-64.848 19.286-15.686-1.2975-31.138-14.171-45.461-19.286-1.31-0.40375-2.6438-0.7575-4-0.95125-1.8088-0.2575-3.6562-0.2325-5.4812-0.0713-2.2825 0.20125-4.5288 0.615-6.7775 1.0225-25.459 4.6012-45.335 20.9-64.848 19.286-15.686-1.2975-31.138-14.171-45.461-19.286-1.31-0.40375-2.6438-0.7575-4-0.95125-1.8088-0.2575-3.6562-0.2325-5.4812-0.0713-2.2825 0.20125-4.53 0.615-6.7788 1.0225-25.458 4.6012-45.334 20.9-64.846 19.286-15.688-1.2972-31.138-14.171-45.461-19.286-1.31-0.40375-2.6438-0.7575-4-0.95125-1.8088-0.2575-3.6562-0.2325-5.4812-0.0713-2.2825 0.20125-4.53 0.615-6.7788 1.0225-25.458 4.6012-45.335 20.9-64.848 19.286-3.5962-0.29-7.18-1.2-10.74-2.48v-52.342c3.56 1.2812 7.1438 2.1875 10.739 2.485 19.512 1.6138 39.39-14.685 64.848-19.288 2.2488-0.40625 4.4962-0.82 6.7788-1.0225 1.825-0.16125 3.6725-0.18625 5.4812 0.0725 1.3562 0.19375 2.69 0.5475 4 0.95 14.324 5.115 29.774 17.99 45.461 19.288 19.512 1.6138 39.389-14.685 64.846-19.288 2.2488-0.40625 4.4962-0.82 6.7788-1.0225 1.825-0.16125 3.6725-0.18625 5.4812 0.0725 1.3562 0.19375 2.69 0.5475 4 0.95 14.324 5.115 29.775 17.99 45.461 19.288 19.512 1.6138 39.389-14.685 64.848-19.288 2.2488-0.40625 4.495-0.82 6.7775-1.0225 1.825-0.16125 3.6725-0.18625 5.4812 0.0725 1.3562 0.19375 2.69 0.5475 4 0.95 14.324 5.115 29.775 17.99 45.461 19.288 19.512 1.6138 39.389-14.685 64.848-19.288 2.2488-0.40625 4.4962-0.82 6.7775-1.0225 1.8262-0.16125 3.6738-0.18625 5.4825 0.0725 1.355 0.19375 2.69 0.5475 4 0.95 14.322 5.115 29.774 17.99 45.46 19.288 19.512 1.6138 39.39-14.685 64.848-19.288 2.2488-0.40625 4.4962-0.82 6.7788-1.0225 1.825-0.16125 3.6725-0.18625 5.4812 0.0725 1.3562 0.19375 2.69 0.5475 4 0.95 14.324 5.115 29.775 17.99 45.461 19.288 19.512 1.6138 39.389-14.685 64.846-19.288 0.95625-0.1725 1.9138-0.33875 2.8725-0.5 1.9138-0.3225 3.8462-0.53 5.7962-0.6225 0.97375-0.0462 1.9425-0.0175 2.9062 0.0863z" stroke="#000" stroke-miterlimit="10" stroke-width="1.25" fill="#0f0f0f"/>
</svg>
