<?xml version="1.0" encoding="utf-8"?>
<!-- Generator: Adobe Illustrator 26.3.1, SVG Export Plug-In . SVG Version: 6.00 Build 0)  -->
<svg version="1.2" baseProfile="tiny" id="Calque_1"
	 xmlns="http://www.w3.org/2000/svg" xmlns:xlink="http://www.w3.org/1999/xlink" x="0px" y="0px" viewBox="0 0 79.47 91"
	 overflow="visible" xml:space="preserve">
<g id="Page-1">
	<g id="Group-48" transform="translate(0.000000, -1.000000)">
		<g transform="translate(0.000000, 0.945000)">
			<path id="Fill-2" fill-rule="evenodd" fill="#FEFEFE" d="M73.95,18.71l-28.64-17c-3.42-2.03-7.63-2.03-11.05,0l-28.64,17
				c-3.42,2.03-5.52,5.78-5.52,9.84v34c0,4.06,2.11,7.81,5.52,9.84l28.64,17c1.71,1.01,3.61,1.52,5.52,1.52
				c1.91,0,3.81-0.51,5.52-1.52l28.64-17c3.42-2.03,5.53-5.78,5.53-9.84v-34C79.47,24.49,77.37,20.74,73.95,18.71z"/>
			<path id="Fill-4" fill-rule="evenodd" fill="#3E474A" d="M35.27,87.64l-28.64-17c-2.8-1.66-4.54-4.76-4.54-8.1v-34
				c0-3.33,1.74-6.43,4.54-8.1l28.64-17c1.37-0.82,2.94-1.25,4.52-1.25c1.58,0,3.15,0.43,4.52,1.25l28.64,17
				c2.36,1.4,3.95,3.83,4.4,6.55c-0.95-2.03-3.09-2.58-5.59-1.12L44.67,42.61c-3.38,1.97-5.87,4.19-5.87,8.26v33.38
				c0,2.44,0.98,4.02,2.5,4.48c-0.5,0.09-1,0.15-1.5,0.15C38.2,88.88,36.64,88.45,35.27,87.64 M73.95,18.71l-28.64-17
				C43.6,0.7,41.7,0.19,39.79,0.19c-1.91,0-3.82,0.51-5.53,1.52l-28.64,17c-3.42,2.03-5.52,5.78-5.52,9.84v34
				c0,4.06,2.11,7.81,5.52,9.84l28.64,17c1.71,1.01,3.62,1.52,5.52,1.52s3.81-0.51,5.52-1.52l28.64-17
				c3.42-2.03,5.52-5.78,5.52-9.84v-34C79.47,24.49,77.37,20.74,73.95,18.71"/>
			<path id="Fill-6" fill-rule="evenodd" fill="#47B353" d="M66.44,65.83l-7.13,4.27c-0.19,0.11-0.33,0.23-0.33,0.46v1.87
				c0,0.23,0.15,0.32,0.34,0.21l7.24-4.4c0.19-0.11,0.22-0.32,0.22-0.55v-1.65C66.78,65.82,66.63,65.72,66.44,65.83"/>
			<path id="Fill-8" fill-rule="evenodd" fill="#FEFEFE" d="M51.26,50.13c0.23-0.12,0.42,0.03,0.42,0.33l0.02,2.47
				c1.03-0.41,1.93-0.52,2.74-0.33c0.18,0.05,0.25,0.29,0.18,0.57l-0.54,2.19c-0.04,0.16-0.14,0.33-0.25,0.44
				c-0.05,0.05-0.1,0.08-0.14,0.11c-0.07,0.04-0.15,0.05-0.21,0.03c-0.37-0.08-1.25-0.28-2.64,0.43c-1.46,0.74-1.97,2-1.95,2.94
				c0.01,1.12,0.59,1.46,2.57,1.49c2.65,0.04,3.79,1.2,3.82,3.86c0.03,2.62-1.37,5.43-3.51,7.15l0.05,2.44
				c0,0.29-0.19,0.63-0.42,0.75l-1.45,0.83c-0.23,0.12-0.42-0.03-0.42-0.32l-0.03-2.4c-1.24,0.51-2.49,0.64-3.3,0.32
				c-0.15-0.06-0.22-0.28-0.16-0.54l0.52-2.21c0.04-0.17,0.13-0.35,0.26-0.46c0.04-0.04,0.09-0.08,0.14-0.1
				c0.08-0.04,0.16-0.05,0.23-0.03c0.86,0.29,1.97,0.15,3.03-0.38c1.35-0.68,2.25-2.06,2.24-3.43c-0.01-1.24-0.68-1.76-2.32-1.77
				c-2.08,0.01-4.02-0.4-4.05-3.47c-0.03-2.52,1.28-5.14,3.36-6.8l-0.03-2.47c0-0.3,0.18-0.64,0.42-0.76L51.26,50.13z"/>
		</g>
	</g>
</g>
</svg>
