<svg xmlns="http://www.w3.org/2000/svg" viewBox="0 0 512.74 511.02"><defs><style>.cls-1{fill:#e44d26;}.cls-2{fill:#f16529;}.cls-3{fill:#ebebeb;}.cls-4{fill:#fff;}.cls-5{fill:#264de4;}.cls-6{fill:#2965f1;}.cls-7{fill:#d6ba32;}.cls-8{fill:#ffda3e;}</style></defs><g id="Calque_1" data-name="Calque 1"><path class="cls-1" d="M23.31,262.27,0,.63H256.27L233,262.12l-105,29.11"/><path class="cls-2" d="M128,269.05V21.82H232.79L212.8,245"/><path class="cls-3" d="M47.52,53.61H128V86.1H82.2l3,33.2H128v31.78H56.7m.7,15.54H89.9l2.26,25.64L128,201.87v33.48L62.21,217"/><path class="cls-4" d="M207.86,54.31H128V86.1h77m-2.82,32.49H128v31.79h39.21l-3.71,41.31L128,201.21v33l65.11-18.06"/></g><g id="Calque_2" data-name="Calque 2"><path class="cls-5" d="M279.55,261.09,256.27,0H512.06L488.75,261.05,384,290.09Z"/><path class="cls-6" d="M468.77,244.05,488.68,21H384.13V267.51Z"/><path class="cls-3" d="M309,117.85l2.9,32.3h72.27v-32.3Zm-2.88-32.3h78.05V53.26h-81Zm78.05,115.59-.14,0-35.67-9.63L346,166H313.9l4.49,50.28L384,234.5l.15,0Z"/><path class="cls-4" d="M384.13,117.85v32.3h39.45l-3.72,41.55-35.73,9.64v33.34l65.68-18.21.48-5.41,7.53-84.35.78-8.6,5.79-64.85H384.13V85h45.22l-2.92,32.86Z"/></g><g id="Calque_3" data-name="Calque 3"><g id="layer1"><g id="g8487"><g id="g3768"><path id="path3770" class="cls-7" d="M134.27,235.53c27.15-1.14,54.35.33,81.53-.14,30-.95,59.94-.16,89.95,0,23.8,0,47.61-.11,71.41.08-7.49,82.6-15,165.2-22,247.85-31.89,9.07-63.81,18-95.7,27-4.08,1.69-8.27.11-12.2-.95q-45.46-13.06-91-25.73-11.85-123.94-22-248.07m122,21.54c-1.12,40.74-.17,81.48-.49,122.22.3,37.26-.55,74.54.43,111.79,26.8-6.31,53.24-14.08,79.69-21.73C342.49,398.63,349,327.9,354.53,257.1c-32.76-.33-65.55,0-98.31,0m-34.1,159.1c-15.74-4.31-31.29-9.26-47.25-12.67a173.52,173.52,0,0,0,.79,28.38c23.37,5.69,46.24,13.18,69.64,18.76.16-53.94-.09-107.92.1-161.87-7.62-.19-15.25-.3-22.87-.46-.87,42.59-.06,85.24-.41,127.86Z"/></g><g id="g3796"><path id="path3798" class="cls-8" d="M256.22,257.07c32.76.08,65.55-.3,98.31,0-5.56,70.8-12,141.53-18.68,212.25C309.4,477,283,484.77,256.16,491.08c-1-37.25-.13-74.53-.43-111.79.32-40.74-.63-81.48.49-122.22m9.17,31.67q.17,52.62,0,105.26c16-2.59,32-5.56,47.93-8.47-.24,8.17-.57,16.34-.92,24.51-15.55,4.14-31.08,8.41-46.71,12.25-.24,9.43-.27,18.85-.19,28.3,19.69-4.41,39.08-10,58.64-14.9,2.45-1.14,7.16-1,6.94-4.84,2.37-25.22,3.84-50.55,6.13-75.82-16.21,1.33-32.25,4.06-48.45,5.17-.14-14.32-.16-28.65.05-43q25.57,0,51.12,0c1.09-9.56,2-19.15,2.78-28.73-25.76.11-51.55-.25-77.32.21Z"/></g><path id="path3806" class="cls-3" d="M222.11,416.17c.35-42.61-.45-85.27.42-127.86,7.62.17,15.25.26,22.87.46-.19,53.94.07,107.93-.11,161.87-23.39-5.58-46.27-13.07-69.63-18.76a172.31,172.31,0,0,1-.78-28.37C190.83,406.91,206.38,411.88,222.11,416.17Z"/></g></g><polygon class="cls-4" points="345.78 287.94 263.53 287.94 263.53 394.01 313.33 385.54 312.39 410.05 265.71 422.31 265.51 447.9 332.69 430.91 338.99 352.03 289.68 358.69 289.74 316.26 342.88 316.29 345.78 287.94"/></g></svg>