<?xml version="1.0" encoding="utf-8"?>
<!-- Generator: Adobe Illustrator 26.3.1, SVG Export Plug-In . SVG Version: 6.00 Build 0)  -->
<svg version="1.1" id="svg3030" xmlns:svg="http://www.w3.org/2000/svg"
	 xmlns="http://www.w3.org/2000/svg" xmlns:xlink="http://www.w3.org/1999/xlink" x="0px" y="0px" viewBox="0 0 90.7 102.1"
	 style="enable-background:new 0 0 90.7 102.1;" xml:space="preserve">
<style type="text/css">
	.st0{fill-rule:evenodd;clip-rule:evenodd;fill:#83CD29;}
</style>
<g id="layer1" transform="translate(-115.94417,-501.42131)">
	<path id="path28" class="st0" d="M161.5,501.4c-1.4,0-2.7,0.3-3.9,1l-37.3,21.6c-2.4,1.4-3.9,4-3.9,6.8v43c0,2.8,1.5,5.4,3.9,6.8
		l9.8,5.6c4.7,2.3,6.5,2.3,8.6,2.3c7,0,11-4.3,11-11.7v-42.5c0-0.6-0.5-1-1.1-1h-4.7c-0.6,0-1.1,0.4-1.1,1v42.5c0,3.3-3.4,6.6-9,3.8
		l-10.1-5.9c-0.4-0.2-0.6-0.5-0.6-1v-43c0-0.4,0.3-0.8,0.6-1l37.3-21.5c0.3-0.2,0.8-0.2,1.1,0l37.3,21.5c0.4,0.2,0.6,0.6,0.6,1v43
		c0,0.4-0.2,0.8-0.6,1l-37.3,21.5c-0.3,0.2-0.8,0.2-1.1,0l-9.6-5.7c-0.3-0.2-0.7-0.2-1,0c-2.6,1.5-3.1,1.7-5.6,2.5
		c-0.6,0.2-1.5,0.5,0.3,1.6l12.5,7.4c1.2,0.7,2.5,1,3.9,1c1.4,0,2.7-0.3,3.9-1l37.3-21.5c2.4-1.4,3.9-4,3.9-6.8v-43
		c0-2.8-1.5-5.4-3.9-6.8l-37.3-21.6C164.2,501.7,162.9,501.4,161.5,501.4L161.5,501.4z M171.5,532.2c-10.6,0-17,4.5-17,12
		c0,8.2,6.3,10.4,16.5,11.4c12.2,1.2,13.2,3,13.2,5.4c0,4.2-3.3,5.9-11.2,5.9c-9.9,0-12-2.5-12.8-7.4c-0.1-0.5-0.5-1-1-1h-4.8
		c-0.6,0-1.1,0.5-1.1,1.1c0,6.3,3.4,13.7,19.7,13.7c11.8,0,18.6-4.6,18.6-12.8c0-8.1-5.5-10.2-17-11.7c-11.6-1.5-12.7-2.3-12.7-5
		c0-2.2,0.9-5.2,9.5-5.2c7.7,0,10.5,1.7,11.7,6.8c0.1,0.5,0.5,0.9,1,0.9h4.8c0.3,0,0.6-0.2,0.8-0.4c0.2-0.2,0.3-0.5,0.3-0.8
		C189.4,536.4,183.5,532.2,171.5,532.2L171.5,532.2z"/>
</g>
</svg>
