<?xml version="1.0" encoding="utf-8"?>
<!-- Generator: Adobe Illustrator 26.3.1, SVG Export Plug-In . SVG Version: 6.00 Build 0)  -->
<svg version="1.2" baseProfile="tiny" id="Calque_1"
	 xmlns="http://www.w3.org/2000/svg" xmlns:xlink="http://www.w3.org/1999/xlink" x="0px" y="0px" viewBox="0 0 125.78 157.33"
	 overflow="visible" xml:space="preserve">
<g>
	<g>
		<path fill="#241F21" d="M121.32,156.85c-38.85,0-77.37,0-116.12,0c0-38.83,0-77.47,0-116.34c15.07,0,29.99,0,45.63,0
			c-8.68,14.2-17.17,28.11-25.93,42.44c8.99,3.52,17.65,6.92,27,10.59c4.09-17.75,8.12-35.28,12.2-53c19.1,0,37.99,0,57.23,0
			C121.32,79.14,121.32,117.79,121.32,156.85z"/>
		<path fill="#3A377C" d="M72.41,3.65c-2.38,10.41-3.98,17.39-5.61,24.55c-2.46-1-4.64-1.89-7.36-3
			C63.23,18.88,67.03,12.58,72.41,3.65z"/>
	</g>
</g>
</svg>
