<?xml version="1.0" encoding="utf-8"?>
<!-- Generator: Adobe Illustrator 26.3.1, SVG Export Plug-In . SVG Version: 6.00 Build 0)  -->
<svg version="1.2" baseProfile="tiny" id="Calque_1"
	 xmlns="http://www.w3.org/2000/svg" xmlns:xlink="http://www.w3.org/1999/xlink" x="0px" y="0px" viewBox="0 0 512 512"
	 overflow="visible" xml:space="preserve">
<g>
	<g>
		<path fill="#349ADA" d="M275.97,461.92c-12.99,0-25.98,0-38.97,0c-2.1-0.33-4.19-0.83-6.3-0.98c-27.79-1.9-55.18-6.18-81.31-16.06
			c-25.59-9.68-49.45-21.84-58.29-50.93c0-92.3,0-184.59,0-276.89c0.82-1.9,1.71-3.78,2.46-5.71c5.9-15.3,17.64-25.18,31.31-32.98
			c26.31-15.01,55.28-21.4,84.94-25.27c9.37-1.22,18.79-2.02,28.19-3.01c12.66,0,25.32,0,37.97,0c2.12,0.29,4.23,0.73,6.36,0.85
			c23.3,1.27,46.31,4.59,68.69,11.23c27.56,8.18,53.83,18.63,69.84,44.9c0,99.29,0,198.59,0,297.88
			c-9.02,15.29-22.45,25.52-38.15,33.05c-24.39,11.69-50.4,17.58-77.06,20.9C295.79,460.12,285.87,460.92,275.97,461.92z
			 M266.28,169.97c9.23-0.84,26.86-1.9,44.32-4.19c21.19-2.78,41.95-7.88,60.94-18.01c7.06-3.77,13.59-9,19.36-14.59
			c5.37-5.19,5.54-10.84,0.38-15.97c-5.81-5.77-12.37-11.28-19.58-15.03c-26.61-13.84-55.7-18.6-85.18-21
			c-31.5-2.57-62.88-1.11-93.95,4.97c-19.19,3.76-37.94,9.01-54.69,19.43c-5.39,3.36-10.08,8.09-14.4,12.83
			c-3.66,4.01-3.22,8.95,0.03,13.33c1.48,1.99,3.15,3.89,4.97,5.57c10,9.29,22.33,14.38,34.97,18.66
			C194.07,166.35,225.79,169.43,266.28,169.97z M394.78,193.42c0-6.66-0.07-13.32,0.03-19.98c0.05-2.94-0.39-4.07-3.53-2.27
			c-26.75,15.39-56.21,21.94-86.38,25.72c-33.68,4.23-67.4,3.95-101.02-0.96c-27.62-4.04-54.51-10.53-79.03-24.57
			c-2.93-1.68-3.92-1.5-3.87,2.17c0.15,11.65,0.53,23.34-0.1,34.96c-0.48,8.86,2.84,15.6,9.81,19.94
			c9.26,5.76,18.79,11.51,28.93,15.33c30.88,11.62,63.26,15.01,96.04,15.22c33.12,0.21,65.76-3.25,97.31-13.93
			c12.49-4.23,24.5-9.49,34.48-18.5c4.94-4.46,7.86-9.67,7.39-16.65C394.49,204.43,394.78,198.92,394.78,193.42z M258.21,348.21
			c29.44,0.08,58.47-3.04,86.78-11.36c14.73-4.33,29.04-9.78,41.03-19.84c4.65-3.9,8.74-8.31,8.75-15
			c0.02-13.16-0.05-26.31,0.06-39.47c0.03-3.28-0.69-3.66-3.54-2c-18.78,10.86-39.24,17.15-60.35,21.43
			c-40.83,8.27-81.95,9.22-123.18,3.85c-29.17-3.8-57.58-10.54-83.44-25.36c-3.52-2.02-3.31-0.26-3.3,2.26
			c0.04,11.49,0.6,23.02-0.16,34.46c-0.65,9.77,3.43,16.73,10.99,21.42c8.71,5.4,17.77,10.6,27.32,14.2
			C191.04,344.8,224.42,348.08,258.21,348.21z M121.05,369.19c0,3.33,0.41,6.72-0.08,9.98c-1.7,11.33,3.94,18.72,12.65,24.58
			c2.76,1.85,5.56,3.68,8.5,5.2c27.87,14.45,58.09,19.45,88.9,21.95c21.79,1.77,43.56,1.29,65.28-1.03
			c24.75-2.64,49.09-7.27,71.65-18.19c7.8-3.78,14.97-9.2,21.64-14.82c2.79-2.36,4.74-7.11,4.95-10.89
			c0.63-11.45,0.17-22.96,0.27-34.45c0.03-3.05-0.69-3.38-3.31-1.88c-25.41,14.56-53.29,21.29-81.93,25.18
			c-30.95,4.21-62.02,4.62-93.1,1.18c-32.28-3.57-63.68-10.2-92.31-26.46c-3.21-1.82-3.14-0.17-3.12,2.17
			C121.07,357.53,121.05,363.36,121.05,369.19z"/>
		<path fill="#FDFEFE" d="M238,50.08c-9.4,0.99-18.82,1.79-28.19,3.01c-29.66,3.87-58.63,10.26-84.94,25.27
			c-13.66,7.8-25.4,17.68-31.31,32.98c-0.75,1.93-1.63,3.81-2.46,5.71c0-21.16,0.08-42.32-0.09-63.47c-0.02-2.99,0.6-3.59,3.58-3.58
			C142.4,50.12,190.2,50.08,238,50.08z"/>
		<path fill="#FDFEFE" d="M91.1,393.94c8.84,29.09,32.7,41.25,58.29,50.93c26.13,9.88,53.52,14.16,81.31,16.06
			c2.11,0.14,4.2,0.64,6.3,0.98c-47.36,0-94.71-0.03-142.07,0.06c-2.9,0.01-3.96-0.37-3.93-3.71
			C91.2,436.83,91.1,415.39,91.1,393.94z"/>
		<path fill="#FDFEFE" d="M275.97,461.92c9.9-0.99,19.82-1.79,29.69-3.02c26.66-3.32,52.67-9.21,77.06-20.9
			c15.7-7.53,29.13-17.76,38.15-33.05c0,17.83-0.09,35.65,0.09,53.48c0.03,2.99-0.6,3.59-3.58,3.58
			C370.24,461.88,323.1,461.92,275.97,461.92z"/>
		<path fill="#FDFEFE" d="M420.87,107.06c-16.01-26.27-42.28-36.72-69.84-44.9c-22.38-6.64-45.39-9.96-68.69-11.23
			c-2.13-0.12-4.24-0.56-6.36-0.85c46.85,0,93.7,0.03,140.55-0.07c3.3-0.01,4.54,0.29,4.47,4.2
			C420.7,71.83,420.87,89.44,420.87,107.06z"/>
		<path fill="#FDFEFE" d="M266.28,169.97c-40.49-0.54-72.21-3.62-102.82-14c-12.64-4.28-24.97-9.37-34.97-18.66
			c-1.82-1.69-3.49-3.58-4.97-5.57c-3.25-4.39-3.69-9.32-0.03-13.33c4.32-4.73,9.01-9.47,14.4-12.83
			c16.74-10.43,35.5-15.68,54.69-19.43c31.08-6.08,62.46-7.54,93.95-4.97c29.47,2.4,58.57,7.16,85.18,21
			c7.21,3.75,13.78,9.27,19.58,15.03c5.15,5.12,4.98,10.77-0.38,15.97c-5.78,5.59-12.3,10.82-19.36,14.59
			c-19,10.13-39.75,15.23-60.94,18.01C293.14,168.07,275.52,169.13,266.28,169.97z"/>
		<path fill="#FDFEFE" d="M394.78,193.42c0,5.49-0.29,11.01,0.08,16.48c0.47,6.98-2.45,12.19-7.39,16.65
			c-9.97,9.01-21.99,14.27-34.48,18.5c-31.56,10.68-64.19,14.14-97.31,13.93c-32.78-0.21-65.16-3.6-96.04-15.22
			c-10.14-3.82-19.67-9.57-28.93-15.33c-6.98-4.34-10.3-11.08-9.81-19.94c0.63-11.62,0.25-23.3,0.1-34.96
			c-0.05-3.66,0.94-3.84,3.87-2.17c24.51,14.04,51.4,20.53,79.03,24.57c33.62,4.91,67.34,5.19,101.02,0.96
			c30.17-3.79,59.63-10.34,86.38-25.72c3.14-1.8,3.58-0.67,3.53,2.27C394.7,180.1,394.78,186.76,394.78,193.42z"/>
		<path fill="#FDFEFE" d="M258.21,348.21c-33.79-0.13-67.17-3.41-99.04-15.42c-9.55-3.59-18.61-8.79-27.32-14.2
			c-7.56-4.69-11.64-11.65-10.99-21.42c0.76-11.44,0.2-22.97,0.16-34.46c-0.01-2.52-0.22-4.28,3.3-2.26
			c25.86,14.82,54.26,21.56,83.44,25.36c41.23,5.37,82.35,4.42,123.18-3.85c21.11-4.28,41.57-10.56,60.35-21.43
			c2.85-1.65,3.57-1.27,3.54,2c-0.11,13.16-0.04,26.31-0.06,39.47c-0.01,6.68-4.1,11.1-8.75,15c-11.99,10.05-26.3,15.5-41.03,19.84
			C316.68,345.18,287.64,348.29,258.21,348.21z"/>
		<path fill="#FDFEFE" d="M121.05,369.19c0-5.83,0.03-11.65-0.01-17.48c-0.02-2.34-0.09-3.99,3.12-2.17
			c28.62,16.26,60.03,22.89,92.31,26.46c31.09,3.44,62.15,3.03,93.1-1.18c28.64-3.89,56.53-10.62,81.93-25.18
			c2.62-1.5,3.34-1.17,3.31,1.88c-0.1,11.49,0.36,23-0.27,34.45c-0.21,3.78-2.15,8.53-4.95,10.89
			c-6.66,5.62-13.83,11.05-21.64,14.82c-22.56,10.92-46.9,15.55-71.65,18.19c-21.72,2.32-43.49,2.8-65.28,1.03
			c-30.82-2.5-61.04-7.5-88.9-21.95c-2.94-1.53-5.75-3.35-8.5-5.2c-8.7-5.85-14.35-13.24-12.65-24.58
			C121.46,375.91,121.05,372.52,121.05,369.19z"/>
	</g>
</g>
</svg>
