<?xml version="1.0" encoding="utf-8"?>
<!-- Generator: Adobe Illustrator 26.3.1, SVG Export Plug-In . SVG Version: 6.00 Build 0)  -->
<svg version="1.2" baseProfile="tiny" id="Calque_1"
	 xmlns="http://www.w3.org/2000/svg" xmlns:xlink="http://www.w3.org/1999/xlink" x="0px" y="0px" viewBox="0 0 512 512"
	 overflow="visible" xml:space="preserve">
<g>
	<polyline fill="#FFFFFF" points="92.5,260.5 200.5,368.5 427,143 	"/>
	<g>
		<path d="M64.22,288.78c31.47,31.47,62.95,62.95,94.42,94.42c4.53,4.53,9.05,9.05,13.58,13.58c15.3,15.3,41.23,15.27,56.57,0
			c25.67-25.56,51.35-51.12,77.02-76.68c40.57-40.39,81.14-80.78,121.71-121.17c9.26-9.22,18.52-18.43,27.77-27.65
			c14.85-14.78,15.9-41.98,0-56.57c-16-14.69-40.72-15.78-56.57,0c-25.67,25.56-51.35,51.12-77.02,76.68
			c-40.57,40.39-81.14,80.78-121.71,121.17c-9.26,9.22-18.52,18.43-27.77,27.65c18.86,0,37.71,0,56.57,0
			c-31.47-31.47-62.95-62.95-94.42-94.42c-4.53-4.53-9.05-9.05-13.58-13.58c-14.82-14.82-41.95-15.92-56.57,0
			C49.56,248.18,48.41,272.97,64.22,288.78L64.22,288.78z"/>
	</g>
</g>
</svg>
