<?xml version="1.0" encoding="utf-8"?>
<!-- Svg Vector Icons : http://www.onlinewebfonts.com/icon -->
<!DOCTYPE svg PUBLIC "-//W3C//DTD SVG 1.1//EN" "http://www.w3.org/Graphics/SVG/1.1/DTD/svg11.dtd">
<svg version="1.1" xmlns="http://www.w3.org/2000/svg" xmlns:xlink="http://www.w3.org/1999/xlink" x="0px" y="0px" viewBox="0 0 1000 1000" enable-background="new 0 0 1000 1000" xml:space="preserve">
<metadata> Svg Vector Icons : http://www.onlinewebfonts.com/icon </metadata>
<g>
    <path style="fill:white;fill-opacity:1" d="M272.1,245.8c0,125.9,102,227.9,227.9,227.9s227.9-102,227.9-227.9S625.9,17.8,500,17.8S272.1,119.9,272.1,245.8z"/>
    <path style="fill:white;fill-opacity:1" d="M695.9,497.1l-20.1-8.8l-16.7,14.2c-44.4,37.9-100.9,58.8-159.1,58.8c-58.2,0-114.7-20.9-159.2-58.8l-16.7-14.2l-20.1,8.8C132.7,571.8,19.7,736.5,10,921.5c4.7,34.2,33.7,60.7,69.2,60.7h841.6c35.5,0,64.6-26.5,69.2-60.7C980.3,736.5,867.2,571.7,695.9,497.1z"/>    
</g>
</svg>