<?xml version="1.0" encoding="utf-8"?>
<!-- Generator: Adobe Illustrator 25.0.0, SVG Export Plug-In . SVG Version: 6.00 Build 0)  -->
<svg version="1.1" id="Calque_1" xmlns:serif="http://www.serif.com/"
	 xmlns="http://www.w3.org/2000/svg" xmlns:xlink="http://www.w3.org/1999/xlink" x="0px" y="0px" viewBox="0 0 203.7 203.7"
	 style="enable-background:new 0 0 203.7 203.7;" xml:space="preserve">
<style type="text/css">
	.st0{fill:#0A66C2;}
</style>
<g transform="matrix(1,0,0,1,-138.462,-287.425)">
	<path class="st0" d="M312,461h-30.2v-47.3c0-11.3-0.2-25.8-15.7-25.8c-15.7,0-18.1,12.3-18.1,25V461h-30.2v-97.2h29v13.3h0.4
		c5.9-10.1,16.9-16.1,28.6-15.7c30.6,0,36.2,20.1,36.2,46.3L312,461z M183.8,350.5C183.8,350.5,183.8,350.5,183.8,350.5
		c-9.6,0-17.5-7.9-17.5-17.5c0-9.6,7.9-17.5,17.5-17.5c9.6,0,17.5,7.9,17.5,17.5c0,0,0,0,0,0C201.3,342.6,193.4,350.5,183.8,350.5
		 M198.9,461h-30.2v-97.2h30.2V461z M327.1,287.4H153.5c-8.1-0.1-14.9,6.5-15,14.7v174.3c0.1,8.2,6.9,14.8,15,14.7h173.6
		c8.2,0.1,15-6.5,15.1-14.7V302.1C342.1,293.9,335.2,287.3,327.1,287.4"/>
</g>
</svg>
