<?xml version="1.0" encoding="utf-8"?>
<!-- Generator: Adobe Illustrator 26.3.1, SVG Export Plug-In . SVG Version: 6.00 Build 0)  -->
<svg version="1.1" id="Calque_1" xmlns:serif="http://www.serif.com/"
	 xmlns="http://www.w3.org/2000/svg" xmlns:xlink="http://www.w3.org/1999/xlink" x="0px" y="0px" viewBox="0 0 203.7 203.7"
	 style="enable-background:new 0 0 203.7 203.7;" xml:space="preserve">
<style type="text/css">
	.st0{fill:#0A66C2;}
	.st1{fill:#FFFFFF;}
</style>
<g transform="matrix(1,0,0,1,-138.462,-287.425)">
	<path class="st0" d="M312,461h-30.2v-47.3c0-11.3-0.2-25.8-15.7-25.8c-15.7,0-18.1,12.3-18.1,25V461h-30.2v-97.2h29v13.3h0.4
		c5.9-10.1,16.9-16.1,28.6-15.7c30.6,0,36.2,20.1,36.2,46.3L312,461z M183.8,350.5L183.8,350.5c-9.6,0-17.5-7.9-17.5-17.5
		s7.9-17.5,17.5-17.5s17.5,7.9,17.5,17.5l0,0C201.3,342.6,193.4,350.5,183.8,350.5 M198.9,461h-30.2v-97.2h30.2V461z M327.1,287.4
		H153.5c-8.1-0.1-14.9,6.5-15,14.7v174.3c0.1,8.2,6.9,14.8,15,14.7h173.6c8.2,0.1,15-6.5,15.1-14.7V302.1
		C342.1,293.9,335.2,287.3,327.1,287.4"/>
</g>
<circle class="st1" cx="45.3" cy="45.6" r="17.5"/>
<rect x="30.2" y="76.4" class="st1" width="30.2" height="97.2"/>
<path class="st1" d="M79.3,173.6V76.4h29v13.3l4.9-6c0-0.1,2-2,2-2l2.3-1.7c0.1-0.1,3.1-2.4,7-3.8c3.5-1.3,6.7-2.4,14.5-2.2
	c5,0.2,15.2,0.1,24.8,9.2s9.8,29.1,9.8,31.3s0,59.1,0,59.1h-30.2l-0.3-53.1c0,0,0.8-14.3-8.2-18.7c-9.1-4.3-19.6,1-21.9,5.8
	c-2.3,4.8-3.3,7.7-3.3,22v43.9H79.3z"/>
</svg>
